<svg version="1.1" id="Layer_1" xmlns="http://www.w3.org/2000/svg" xmlns:xlink="http://www.w3.org/1999/xlink" x="0px" y="0px"
	 width="100%" viewBox="0 0 236 151" enable-background="new 0 0 236 151" xml:space="preserve">
<path fill="#FEF52A" opacity="1.000000" stroke="none" 
	d="
M23.000000,1.000000 
	C94.290726,1.000000 165.581451,1.000000 236.936096,1.000000 
	C236.936096,51.260593 236.936096,101.521286 236.936096,151.890991 
	C158.453125,151.890991 79.906052,151.890991 1.000000,151.890991 
	C1.000000,108.313095 1.000000,64.625206 1.357269,20.554092 
	C9.382121,23.949808 17.157820,22.680462 22.518732,16.774681 
	C26.912642,11.934188 27.045368,7.583720 23.000000,1.000000 
M6.147906,69.053650 
	C6.147906,69.053650 6.163173,69.145264 5.505193,69.195686 
	C5.685617,70.469093 5.866041,71.742500 6.137865,73.667328 
	C6.456313,74.703735 6.774761,75.740150 7.041263,77.694000 
	C6.845625,80.172325 6.325950,82.684639 6.580986,85.115685 
	C6.724335,86.482109 8.147331,87.714302 9.107988,89.674110 
	C12.060731,93.817032 12.691768,93.744835 15.851434,88.998116 
	C16.985157,88.951416 18.118881,88.904724 19.871756,88.766304 
	C20.880064,88.428337 21.888372,88.090370 23.384689,88.282967 
	C25.469759,88.003075 27.554831,87.723175 29.639900,87.443275 
	C29.790236,86.990479 29.940573,86.537689 30.090908,86.084892 
	C24.930683,83.737999 27.536734,80.174133 28.000355,76.998428 
	C28.000355,76.998428 27.952009,76.966217 28.794069,76.984512 
	C34.075481,77.487549 32.906265,73.736473 32.919811,69.899765 
	C33.301697,60.351635 28.856667,56.064587 19.700674,58.393402 
	C15.633303,59.427937 12.155235,62.779373 7.807247,65.380333 
	C7.558152,65.976898 7.309057,66.573463 7.048300,67.589958 
	C7.048300,67.589958 6.980616,68.004555 6.593760,68.283333 
	C6.356843,68.503914 6.177462,68.764160 6.147906,69.053650 
M192.380219,24.663139 
	C192.567230,24.361877 192.754227,24.060616 192.952667,22.986551 
	C193.223633,19.465950 191.808563,17.692438 188.052856,17.412111 
	C188.014740,15.948963 188.134064,14.461135 187.909302,13.027244 
	C187.205261,8.535844 183.100967,5.912229 178.044495,7.117703 
	C170.311966,6.617842 163.770401,8.693343 160.045303,16.064831 
	C156.466080,23.147665 160.508667,29.657429 168.486679,29.919037 
	C174.224106,30.107174 178.652252,27.245852 183.193741,24.238337 
	C184.221695,25.207819 185.249634,26.177301 185.821060,27.700945 
	C185.521576,29.439749 185.007446,31.189634 185.096207,32.908390 
	C185.114899,33.270107 188.014053,34.143341 188.431686,33.698124 
	C189.599319,32.453373 190.162338,30.641451 191.265930,28.386473 
	C191.461853,27.203712 191.657776,26.020952 191.934464,24.872332 
	C191.934464,24.872332 191.934372,24.960028 192.380219,24.663139 
M206.231277,56.674282 
	C206.959717,58.922100 207.740784,61.564686 210.793564,60.138725 
	C212.004044,59.573318 212.466599,57.406780 213.269669,55.969227 
	C211.453354,55.493195 209.637024,55.017162 207.851852,53.598782 
	C207.867340,52.335339 207.882828,51.071899 208.591217,50.145500 
	C214.514008,53.164299 219.966125,51.534103 224.954865,48.068539 
	C230.184402,44.435680 232.255722,38.231094 230.212112,33.749554 
	C228.337006,29.637579 223.820633,28.006691 217.176193,29.042244 
	C208.039917,30.466158 202.482193,38.943848 204.815674,47.602314 
	C203.605255,49.230206 202.394852,50.858097 201.184433,52.485989 
	C202.796890,53.657913 204.409363,54.829834 206.231277,56.674282 
M57.357319,53.564556 
	C61.359016,56.880486 62.625034,56.393291 64.589867,50.644321 
	C68.230637,48.295200 71.965607,46.076424 75.472534,43.542091 
	C77.232185,42.270454 80.271774,41.114883 77.940514,37.356293 
	C78.229462,36.881535 78.518410,36.406776 79.561943,35.765438 
	C82.237595,31.051826 79.999229,24.214382 75.156868,22.309414 
	C69.235199,19.979853 58.574074,22.371048 54.536915,27.202606 
	C53.831539,28.046780 54.206699,29.793835 53.923744,31.865297 
	C53.463554,33.582890 53.003365,35.300480 51.965698,37.262264 
	C48.947956,40.290943 45.930218,43.319626 42.116238,47.147434 
	C45.126518,47.947151 47.075237,48.464855 48.998886,48.999321 
	C48.998886,48.999321 49.016529,48.972874 49.171715,49.610657 
	C51.776543,50.740067 54.381367,51.869476 57.357319,53.564556 
M190.492722,113.187225 
	C187.957886,115.970901 188.187057,119.718605 191.396149,121.751305 
	C196.500244,124.984337 196.976624,119.237984 198.725647,117.724030 
	C201.885391,118.287651 204.428986,118.922394 206.981277,118.959557 
	C207.288284,118.964027 207.642426,115.729980 207.989899,113.329048 
	C208.037262,112.886246 208.084625,112.443451 208.776642,111.790756 
	C208.810577,109.760635 208.844513,107.730507 209.217285,105.259819 
	C209.800888,104.816994 210.384491,104.374176 211.419205,104.360176 
	C213.945633,103.840546 219.791000,96.508919 219.486725,94.241325 
	C218.853165,89.519325 212.081589,83.110161 207.288651,83.180946 
	C199.658325,83.293625 193.187958,85.677383 188.803299,92.643387 
	C183.791031,100.606476 184.961716,105.407654 193.549194,108.980301 
	C195.569565,109.820831 197.437637,110.459961 195.159592,113.035988 
	C193.833084,113.054642 192.506577,113.073296 190.492722,113.187225 
M116.005829,66.238068 
	C112.974297,68.888588 109.032341,71.005608 107.101303,74.300995 
	C103.115051,81.103668 106.990738,87.294655 114.858795,87.917114 
	C121.242195,88.422112 128.410049,84.411270 131.309204,78.712120 
	C134.465317,72.507820 131.467300,66.235352 124.587624,65.303818 
	C122.058304,64.961327 119.378777,65.728073 116.005829,66.238068 
M142.461258,124.764793 
	C137.351044,126.309784 132.997711,128.786987 130.682648,133.954773 
	C127.691811,140.631088 131.157303,146.977982 138.444565,146.803391 
	C142.523773,146.705643 146.928467,145.296539 150.519760,143.286850 
	C155.664581,140.407822 157.514450,134.520798 155.832565,130.023773 
	C154.228409,125.734543 149.727783,123.772743 142.461258,124.764793 
M68.816551,123.167320 
	C70.537178,117.277260 68.119461,112.509865 62.735134,111.175636 
	C55.560909,109.397865 47.073589,113.352516 43.830647,119.984131 
	C41.007523,125.757233 43.295582,131.077316 49.437187,133.020187 
	C56.169960,135.150070 63.865765,131.445068 68.816551,123.167320 
M229.813797,140.568405 
	C228.241440,139.816437 226.719528,138.802094 225.063782,138.483719 
	C224.608978,138.396286 223.086731,140.510468 223.246613,141.400116 
	C223.460129,142.588135 225.315765,144.606171 225.633194,144.459900 
	C227.192596,143.741440 228.476044,142.424057 229.813797,140.568405 
M152.166763,57.516705 
	C152.566315,59.150711 152.728165,60.917019 153.517029,62.334339 
	C153.740128,62.735184 156.513672,62.509613 156.858276,61.881008 
	C157.530457,60.654896 157.313873,58.941544 157.465332,57.429955 
	C155.877701,57.289783 154.290085,57.149616 152.166763,57.516705 
M30.644636,9.778242 
	C32.366901,9.778758 34.166370,10.049167 35.758224,9.593802 
	C36.166348,9.477055 36.369724,6.834674 35.826500,5.789566 
	C35.411320,4.990802 32.923855,4.251955 32.650871,4.575872 
	C31.576220,5.851041 31.012501,7.556801 30.644636,9.778242 
M73.669113,84.092033 
	C71.987419,83.760223 70.278351,83.123795 68.639717,83.271072 
	C68.106422,83.319008 67.106178,85.732925 67.480240,86.494904 
	C68.006065,87.566017 70.203232,88.999542 70.649994,88.705345 
	C72.003090,87.814339 72.857384,86.165833 73.669113,84.092033 
M127.128426,95.204262 
	C128.788071,94.676392 130.573715,94.355347 132.018631,93.475029 
	C132.379288,93.255302 132.026382,90.807739 131.304337,90.153694 
	C130.524109,89.446953 127.970711,89.224892 127.845428,89.512421 
	C127.149879,91.108696 126.957672,92.924294 127.128426,95.204262 
M5.465485,65.494690 
	C5.465485,65.494690 5.515347,65.473557 5.465485,65.494690 
z"/>
<path fill="#C2AD02" opacity="1.000000" stroke="none" 
	d="
M22.531218,1.000000 
	C27.045368,7.583720 26.912642,11.934188 22.518732,16.774681 
	C17.157820,22.680462 9.382121,23.949808 1.357269,20.085434 
	C1.000000,13.735092 1.000000,7.470185 1.000000,1.000000 
	C8.019485,1.000000 15.040959,1.000000 22.531218,1.000000 
z"/>
<path fill="#C1AC02" opacity="1.000000" stroke="none" 
	d="
M116.386795,66.113464 
	C119.378777,65.728073 122.058304,64.961327 124.587624,65.303818 
	C131.467300,66.235352 134.465317,72.507820 131.309204,78.712120 
	C128.410049,84.411270 121.242195,88.422112 114.858795,87.917114 
	C106.990738,87.294655 103.115051,81.103668 107.101303,74.300995 
	C109.032341,71.005608 112.974297,68.888588 116.386795,66.113464 
z"/>
<path fill="#C2AD02" opacity="1.000000" stroke="none" 
	d="
M6.980617,68.004555 
	C6.980616,68.004555 7.048300,67.589958 7.292106,67.171829 
	C7.827168,66.195518 8.118423,65.637329 8.409678,65.079147 
	C12.155235,62.779373 15.633303,59.427937 19.700674,58.393402 
	C28.856667,56.064587 33.301697,60.351635 32.674099,70.568649 
	C30.936262,73.147095 29.444134,75.056656 27.952007,76.966217 
	C27.952009,76.966217 28.000355,76.998428 27.656893,77.120331 
	C20.472216,81.478729 13.704885,82.507004 7.093208,76.776558 
	C6.774761,75.740150 6.456313,74.703735 6.125040,72.953430 
	C6.129201,71.208107 6.146187,70.176682 6.163173,69.145264 
	C6.163173,69.145264 6.147906,69.053650 6.344549,68.978653 
	C6.687667,68.603958 6.834142,68.304253 6.980617,68.004555 
z"/>
<path fill="#C1AC02" opacity="1.000000" stroke="none" 
	d="
M142.841812,124.645920 
	C149.727783,123.772743 154.228409,125.734543 155.832565,130.023773 
	C157.514450,134.520798 155.664581,140.407822 150.519760,143.286850 
	C146.928467,145.296539 142.523773,146.705643 138.444565,146.803391 
	C131.157303,146.977982 127.691811,140.631088 130.682648,133.954773 
	C132.997711,128.786987 137.351044,126.309784 142.841812,124.645920 
z"/>
<path fill="#C2AD02" opacity="1.000000" stroke="none" 
	d="
M205.333359,47.107170 
	C202.482193,38.943848 208.039917,30.466158 217.176193,29.042244 
	C223.820633,28.006691 228.337006,29.637579 230.212112,33.749554 
	C232.255722,38.231094 230.184402,44.435680 224.954865,48.068539 
	C219.966125,51.534103 214.514008,53.164299 208.074844,49.772675 
	C206.816772,48.635620 206.075073,47.871395 205.333359,47.107170 
z"/>
<path fill="#C1AC01" opacity="1.000000" stroke="none" 
	d="
M68.657379,123.505463 
	C63.865765,131.445068 56.169960,135.150070 49.437187,133.020187 
	C43.295582,131.077316 41.007523,125.757233 43.830647,119.984131 
	C47.073589,113.352516 55.560909,109.397865 62.735134,111.175636 
	C68.119461,112.509865 70.537178,117.277260 68.657379,123.505463 
z"/>
<path fill="#C1AD02" opacity="1.000000" stroke="none" 
	d="
M182.748032,23.659321 
	C178.652252,27.245852 174.224106,30.107174 168.486679,29.919037 
	C160.508667,29.657429 156.466080,23.147665 160.045303,16.064831 
	C163.770401,8.693343 170.311966,6.617842 178.739120,7.353681 
	C186.150711,12.062414 186.558334,14.038793 182.748032,23.659321 
z"/>
<path fill="#C2AD02" opacity="1.000000" stroke="none" 
	d="
M210.968094,103.931351 
	C210.384491,104.374176 209.800888,104.816994 208.671692,105.580551 
	C205.096451,106.629333 202.076614,107.924141 199.035263,107.976837 
	C190.658951,108.121994 186.890625,101.511543 190.818100,94.103142 
	C194.145187,87.827293 202.739243,84.179115 209.587357,86.135620 
	C214.017426,87.401299 216.896408,92.391838 215.239960,96.709686 
	C214.252274,99.284271 212.420441,101.535019 210.968094,103.931351 
z"/>
<path fill="#C1AD02" opacity="1.000000" stroke="none" 
	d="
M78.807358,35.932014 
	C78.518410,36.406776 78.229462,36.881535 77.634216,37.844559 
	C76.030914,39.601570 74.861343,41.042618 73.416435,42.111435 
	C63.155712,49.701397 52.846771,45.615002 52.543175,37.018070 
	C53.003365,35.300480 53.463554,33.582890 54.287830,31.315784 
	C57.119774,28.838814 59.345177,26.409084 62.101242,25.078678 
	C70.161636,21.187777 81.324501,24.029497 78.807358,35.932014 
z"/>
<path fill="#FBF02F" opacity="1.000000" stroke="none" 
	d="
M211.193649,104.145767 
	C212.420441,101.535019 214.252274,99.284271 215.239960,96.709686 
	C216.896408,92.391838 214.017426,87.401299 209.587357,86.135620 
	C202.739243,84.179115 194.145187,87.827293 190.818100,94.103142 
	C186.890625,101.511543 190.658951,108.121994 199.035263,107.976837 
	C202.076614,107.924141 205.096451,106.629333 208.502289,105.800827 
	C208.844513,107.730507 208.810577,109.760635 208.277191,111.607254 
	C206.414658,110.856140 204.456635,109.452187 203.819687,109.905304 
	C202.697189,110.703812 201.434921,113.145653 201.896439,114.002190 
	C203.599014,117.161964 205.917221,115.648109 207.974716,113.996956 
	C207.642426,115.729980 207.288284,118.964027 206.981277,118.959557 
	C204.428986,118.922394 201.885391,118.287651 198.725647,117.724030 
	C196.976624,119.237984 196.500244,124.984337 191.396149,121.751305 
	C188.187057,119.718605 187.957886,115.970901 190.659012,113.462616 
	C191.065079,115.338097 190.997162,117.099052 191.705612,118.454132 
	C191.965988,118.952156 194.974854,118.854271 195.155243,118.401199 
	C195.790039,116.806808 195.740921,114.940117 195.951294,113.176743 
	C197.437637,110.459961 195.569565,109.820831 193.549194,108.980301 
	C184.961716,105.407654 183.791031,100.606476 188.803299,92.643387 
	C193.187958,85.677383 199.658325,83.293625 207.288651,83.180946 
	C212.081589,83.110161 218.853165,89.519325 219.486725,94.241325 
	C219.791000,96.508919 213.945633,103.840546 211.193649,104.145767 
z"/>
<path fill="#F9EF2E" opacity="1.000000" stroke="none" 
	d="
M52.254436,37.140167 
	C52.846771,45.615002 63.155712,49.701397 73.416435,42.111435 
	C74.861343,41.042618 76.030914,39.601570 77.578484,38.121098 
	C80.271774,41.114883 77.232185,42.270454 75.472534,43.542091 
	C71.965607,46.076424 68.230637,48.295200 64.063309,50.569466 
	C60.038048,47.889194 57.989754,49.077667 56.986195,52.998890 
	C54.381367,51.869476 51.776543,50.740067 49.469082,49.281197 
	C50.683392,48.655373 52.060181,48.623802 52.416672,48.004711 
	C53.058064,46.890854 53.416969,45.371201 53.215454,44.131348 
	C53.131481,43.614700 50.970909,42.792843 50.353447,43.148750 
	C49.295452,43.758575 48.421391,45.092999 48.032230,46.303841 
	C47.803070,47.016842 48.657101,48.077988 49.023960,48.982552 
	C47.075237,48.464855 45.126518,47.947151 42.116238,47.147434 
	C45.930218,43.319626 48.947956,40.290943 52.254436,37.140167 
z"/>
<path fill="#FBF131" opacity="1.000000" stroke="none" 
	d="
M7.067235,77.235275 
	C13.704885,82.507004 20.472216,81.478729 27.639790,77.096786 
	C27.536734,80.174133 24.930683,83.737999 30.090908,86.084892 
	C29.940573,86.537689 29.790236,86.990479 29.639900,87.443275 
	C27.554831,87.723175 25.469759,88.003075 23.230219,87.698425 
	C22.491489,85.502068 22.112440,83.750542 21.177616,82.377373 
	C20.946049,82.037224 18.912285,82.923973 17.706940,83.246750 
	C18.222164,85.117180 18.737385,86.987595 19.252605,88.858017 
	C18.118881,88.904724 16.985157,88.951416 15.289598,88.862595 
	C14.727762,88.727081 14.455459,88.454147 14.613639,88.122437 
	C14.230466,86.265465 13.949182,84.538887 13.008039,83.323112 
	C12.674317,82.892006 9.979862,83.363693 9.683229,84.019951 
	C9.054759,85.410339 9.294286,87.193069 9.131811,88.862877 
	C9.085752,88.910843 8.993824,89.006966 8.993823,89.006966 
	C8.147331,87.714302 6.724335,86.482109 6.580986,85.115685 
	C6.325950,82.684639 6.845625,80.172325 7.067235,77.235275 
z"/>
<path fill="#F9EF2E" opacity="1.000000" stroke="none" 
	d="
M79.184654,35.848728 
	C81.324501,24.029497 70.161636,21.187777 62.101242,25.078678 
	C59.345177,26.409084 57.119774,28.838814 54.367363,30.945082 
	C54.206699,29.793835 53.831539,28.046780 54.536915,27.202606 
	C58.574074,22.371048 69.235199,19.979853 75.156868,22.309414 
	C79.999229,24.214382 82.237595,31.051826 79.184654,35.848728 
z"/>
<path fill="#FBF131" opacity="1.000000" stroke="none" 
	d="
M182.970886,23.948830 
	C186.558334,14.038793 186.150711,12.062414 179.173462,7.376967 
	C183.100967,5.912229 187.205261,8.535844 187.909302,13.027244 
	C188.134064,14.461135 188.014740,15.948963 187.897064,18.124722 
	C185.445587,23.563984 186.254761,24.744736 191.853683,24.838190 
	C191.657776,26.020952 191.461853,27.203712 190.840485,28.536684 
	C189.035873,28.173523 187.656738,27.660151 186.277588,27.146782 
	C185.249634,26.177301 184.221695,25.207819 182.970886,23.948830 
z"/>
<path fill="#C9B506" opacity="1.000000" stroke="none" 
	d="
M205.074524,47.354744 
	C206.075073,47.871395 206.816772,48.635620 207.728394,49.604149 
	C207.882828,51.071899 207.867340,52.335339 207.799042,54.147850 
	C207.746246,54.696915 207.471451,54.966923 207.156403,55.043701 
	C206.559662,55.421085 206.277954,55.721687 205.996185,56.008652 
	C205.996140,55.995014 206.021820,56.001755 206.021820,56.001755 
	C204.409363,54.829834 202.796890,53.657913 201.184433,52.485989 
	C202.394852,50.858097 203.605255,49.230206 205.074524,47.354744 
z"/>
<path fill="#C3B403" opacity="1.000000" stroke="none" 
	d="
M229.835373,140.943298 
	C228.476044,142.424057 227.192596,143.741440 225.633194,144.459900 
	C225.315765,144.606171 223.460129,142.588135 223.246613,141.400116 
	C223.086731,140.510468 224.608978,138.396286 225.063782,138.483719 
	C226.719528,138.802094 228.241440,139.816437 229.835373,140.943298 
z"/>
<path fill="#C3B403" opacity="1.000000" stroke="none" 
	d="
M152.434601,57.263077 
	C154.290085,57.149616 155.877701,57.289783 157.465332,57.429955 
	C157.313873,58.941544 157.530457,60.654896 156.858276,61.881008 
	C156.513672,62.509613 153.740128,62.735184 153.517029,62.334339 
	C152.728165,60.917019 152.566315,59.150711 152.434601,57.263077 
z"/>
<path fill="#C3B403" opacity="1.000000" stroke="none" 
	d="
M30.451889,9.440492 
	C31.012501,7.556801 31.576220,5.851041 32.650871,4.575872 
	C32.923855,4.251955 35.411320,4.990802 35.826500,5.789566 
	C36.369724,6.834674 36.166348,9.477055 35.758224,9.593802 
	C34.166370,10.049167 32.366901,9.778758 30.451889,9.440492 
z"/>
<path fill="#C2AD02" opacity="1.000000" stroke="none" 
	d="
M207.471451,54.966927 
	C207.471451,54.966923 207.746246,54.696915 207.783478,54.619026 
	C209.637024,55.017162 211.453354,55.493195 213.269669,55.969227 
	C212.466599,57.406780 212.004044,59.573318 210.793564,60.138725 
	C207.740784,61.564686 206.959717,58.922100 206.126556,56.338020 
	C206.021820,56.001755 205.996140,55.995014 206.288055,55.910370 
	C206.877121,55.539455 207.174286,55.253189 207.471451,54.966927 
z"/>
<path fill="#C3B403" opacity="1.000000" stroke="none" 
	d="
M186.049316,27.423862 
	C187.656738,27.660151 189.035873,28.173523 190.689514,28.870132 
	C190.162338,30.641451 189.599319,32.453373 188.431686,33.698124 
	C188.014053,34.143341 185.114899,33.270107 185.096207,32.908390 
	C185.007446,31.189634 185.521576,29.439749 186.049316,27.423862 
z"/>
<path fill="#C3B403" opacity="1.000000" stroke="none" 
	d="
M73.787567,84.452255 
	C72.857384,86.165833 72.003090,87.814339 70.649994,88.705345 
	C70.203232,88.999542 68.006065,87.566017 67.480240,86.494904 
	C67.106178,85.732925 68.106422,83.319008 68.639717,83.271072 
	C70.278351,83.123795 71.987419,83.760223 73.787567,84.452255 
z"/>
<path fill="#C3B403" opacity="1.000000" stroke="none" 
	d="
M191.894073,24.855261 
	C186.254761,24.744736 185.445587,23.563984 187.918640,18.568462 
	C191.808563,17.692438 193.223633,19.465950 192.722061,23.523190 
	C192.305756,24.359896 192.120071,24.659962 191.934372,24.960028 
	C191.934372,24.960028 191.934464,24.872332 191.894073,24.855261 
z"/>
<path fill="#C3B403" opacity="1.000000" stroke="none" 
	d="
M126.860802,94.934540 
	C126.957672,92.924294 127.149879,91.108696 127.845428,89.512421 
	C127.970711,89.224892 130.524109,89.446953 131.304337,90.153694 
	C132.026382,90.807739 132.379288,93.255302 132.018631,93.475029 
	C130.573715,94.355347 128.788071,94.676392 126.860802,94.934540 
z"/>
<path fill="#C3B403" opacity="1.000000" stroke="none" 
	d="
M57.171757,53.281723 
	C57.989754,49.077667 60.038048,47.889194 63.767723,50.751694 
	C62.625034,56.393291 61.359016,56.880486 57.171757,53.281723 
z"/>
<path fill="#C3B403" opacity="1.000000" stroke="none" 
	d="
M195.555450,113.106369 
	C195.740921,114.940117 195.790039,116.806808 195.155243,118.401199 
	C194.974854,118.854271 191.965988,118.952156 191.705612,118.454132 
	C190.997162,117.099052 191.065079,115.338097 191.002686,113.414970 
	C192.506577,113.073296 193.833084,113.054642 195.555450,113.106369 
z"/>
<path fill="#C3B403" opacity="1.000000" stroke="none" 
	d="
M19.562180,88.812164 
	C18.737385,86.987595 18.222164,85.117180 17.706940,83.246750 
	C18.912285,82.923973 20.946049,82.037224 21.177616,82.377373 
	C22.112440,83.750542 22.491489,85.502068 22.986216,87.433151 
	C21.888372,88.090370 20.880064,88.428337 19.562180,88.812164 
z"/>
<path fill="#C3B403" opacity="1.000000" stroke="none" 
	d="
M207.982300,113.663002 
	C205.917221,115.648109 203.599014,117.161964 201.896439,114.002190 
	C201.434921,113.145653 202.697189,110.703812 203.819687,109.905304 
	C204.456635,109.452187 206.414658,110.856140 207.954865,111.712196 
	C208.084625,112.443451 208.037262,112.886246 207.982300,113.663002 
z"/>
<path fill="#FBF131" opacity="1.000000" stroke="none" 
	d="
M14.863914,88.863541 
	C12.691768,93.744835 12.060731,93.817032 9.050906,89.340538 
	C8.993824,89.006966 9.085752,88.910843 9.516850,88.926865 
	C11.450452,88.779976 12.952955,88.617058 14.455459,88.454147 
	C14.455459,88.454147 14.727762,88.727081 14.863914,88.863541 
z"/>
<path fill="#FBF131" opacity="1.000000" stroke="none" 
	d="
M28.373039,76.975365 
	C29.444134,75.056656 30.936262,73.147095 32.665627,70.995880 
	C32.906265,73.736473 34.075481,77.487549 28.373039,76.975365 
z"/>
<path fill="#FBF131" opacity="1.000000" stroke="none" 
	d="
M5.834183,69.170471 
	C6.146187,70.176682 6.129201,71.208107 6.079340,72.627716 
	C5.866041,71.742500 5.685617,70.469093 5.834183,69.170471 
z"/>
<path fill="#FBF131" opacity="1.000000" stroke="none" 
	d="
M8.108462,65.229736 
	C8.118423,65.637329 7.827168,66.195518 7.297937,66.961868 
	C7.309057,66.573463 7.558152,65.976898 8.108462,65.229736 
z"/>
<path fill="#FBF131" opacity="1.000000" stroke="none" 
	d="
M6.787189,68.143944 
	C6.834142,68.304253 6.687667,68.603958 6.298405,68.983864 
	C6.177462,68.764160 6.356843,68.503914 6.787189,68.143944 
z"/>
<path fill="#FBF131" opacity="1.000000" stroke="none" 
	d="
M5.490416,65.484123 
	C5.515347,65.473557 5.465485,65.494690 5.490416,65.484123 
z"/>
<path fill="#FBF131" opacity="1.000000" stroke="none" 
	d="
M192.157288,24.811584 
	C192.120071,24.659962 192.305756,24.359896 192.716339,23.909592 
	C192.754227,24.060616 192.567230,24.361877 192.157288,24.811584 
z"/>
<path fill="#C2AD02" opacity="1.000000" stroke="none" 
	d="
M49.011421,48.990936 
	C48.657101,48.077988 47.803070,47.016842 48.032230,46.303841 
	C48.421391,45.092999 49.295452,43.758575 50.353447,43.148750 
	C50.970909,42.792843 53.131481,43.614700 53.215454,44.131348 
	C53.416969,45.371201 53.058064,46.890854 52.416672,48.004711 
	C52.060181,48.623802 50.683392,48.655373 49.391487,48.962307 
	C49.016529,48.972874 48.998886,48.999321 49.011421,48.990936 
z"/>
<path fill="#C3B403" opacity="1.000000" stroke="none" 
	d="
M14.613639,88.122437 
	C12.952955,88.617058 11.450452,88.779976 9.562909,88.878899 
	C9.294286,87.193069 9.054759,85.410339 9.683229,84.019951 
	C9.979862,83.363693 12.674317,82.892006 13.008039,83.323112 
	C13.949182,84.538887 14.230466,86.265465 14.613639,88.122437 
z"/>
<path fill="#FEF52A" opacity="1.000000" stroke="none" 
	d="
M207.156403,55.043701 
	C207.174286,55.253189 206.877121,55.539455 206.288086,55.924004 
	C206.277954,55.721687 206.559662,55.421085 207.156403,55.043701 
z"/>
</svg>